<svg width="37" height="40" viewBox="0 0 37 40" fill="none" xmlns="http://www.w3.org/2000/svg">
<g clip-path="url(#clip0_806_1559)">
<path d="M35.4615 22.7039C33.0576 32.3467 23.2907 38.2153 13.6466 35.8108C4.00658 33.4066 -1.86192 23.6393 0.543163 13.9971C2.94614 4.35314 12.7129 -1.5158 22.354 0.888232C31.9974 3.29226 37.8654 13.0607 35.4612 22.7041L35.4615 22.7039Z" fill="#F7931A"/>
<path fill-rule="evenodd" clip-rule="evenodd" d="M25.9393 15.7856C26.2975 13.3902 24.4738 12.1026 21.9801 11.2436L22.7891 7.99881L20.8138 7.50663L20.0263 10.666C19.507 10.5365 18.9738 10.4145 18.4438 10.2935L19.237 7.11327L17.2631 6.62109L16.4536 9.86484C16.0239 9.76698 15.6019 9.67029 15.1924 9.56841L15.1947 9.55821L12.4708 8.87802L11.9454 10.9877C11.9454 10.9877 13.4108 11.3236 13.38 11.3443C14.1798 11.5439 14.3245 12.0734 14.3004 12.4931L13.3789 16.1896C13.434 16.2036 13.5054 16.2239 13.5843 16.2555L13.527 16.2412C13.4782 16.229 13.4275 16.2163 13.3755 16.2039L12.0838 21.3823C11.9861 21.6253 11.7379 21.9899 11.1787 21.8515C11.1985 21.8801 9.74312 21.4932 9.74312 21.4932L8.76248 23.7542L11.3329 24.395C11.6143 24.4655 11.8925 24.538 12.1678 24.6098L12.1684 24.61C12.3606 24.6601 12.5515 24.7098 12.7411 24.7583L11.9238 28.0403L13.8967 28.5325L14.7061 25.2853C15.2451 25.4316 15.7681 25.5666 16.2802 25.6938L15.4735 28.9257L17.4488 29.4179L18.2661 26.142C21.6342 26.7794 24.1668 26.5224 25.2328 23.476C26.0917 21.0232 25.19 19.6085 23.418 18.6859C24.7087 18.3882 25.6808 17.5394 25.94 15.7859L25.9393 15.7856ZM21.4264 22.1138C20.8663 24.3642 17.344 23.4338 15.7323 23.0081C15.5874 22.9699 15.4579 22.9357 15.3473 22.9082L16.432 18.5601C16.5667 18.5938 16.7312 18.6307 16.9177 18.6725C18.5847 19.0466 22.0001 19.8131 21.4264 22.1138ZM17.2521 16.6545C18.5957 17.0131 21.5268 17.7953 22.0372 15.7501C22.5585 13.6583 19.7101 13.0276 18.3189 12.7196C18.1624 12.6849 18.0243 12.6544 17.9116 12.6263L16.9282 16.5697C17.0211 16.5929 17.13 16.6219 17.2521 16.6545Z" fill="white"/>
</g>
<defs>
<clipPath id="clip0_806_1559">
<rect width="36.6" height="39.3" fill="white" transform="translate(0 0.349609)"/>
</clipPath>
</defs>
</svg>
