<svg width="150" height="68" viewBox="0 0 150 68" fill="none" xmlns="http://www.w3.org/2000/svg">
<g clip-path="url(#clip0_806_2300)">
<path fill-rule="evenodd" clip-rule="evenodd" d="M10.3186 -0.00390625H17.4602V66.8966H10.3186V-0.00390625Z" fill="white"/>
<path fill-rule="evenodd" clip-rule="evenodd" d="M19.7182 -0.00390625H21.9237V66.8966H19.7182V-0.00390625Z" fill="white"/>
<path fill-rule="evenodd" clip-rule="evenodd" d="M23.8535 -0.00390625H27.8181V66.8966H23.8535V-0.00390625Z" fill="white"/>
<path fill-rule="evenodd" clip-rule="evenodd" d="M31.6384 -0.00390625H33.857V66.8966H31.6384V-0.00390625Z" fill="white"/>
<path fill-rule="evenodd" clip-rule="evenodd" d="M34.8153 -0.00390625H36.522V66.8966H34.8153V-0.00390625Z" fill="white"/>
<path fill-rule="evenodd" clip-rule="evenodd" d="M4.88361 -0.00390625H7.10223V66.8966H4.88361V-0.00390625Z" fill="white"/>
<path fill-rule="evenodd" clip-rule="evenodd" d="M0 -0.00390625H3.96464V66.8966H0V-0.00390625Z" fill="white"/>
<path fill-rule="evenodd" clip-rule="evenodd" d="M48.3503 -0.00390625H55.505V66.8966H48.3503V-0.00390625Z" fill="white"/>
<path fill-rule="evenodd" clip-rule="evenodd" d="M57.7499 -0.00390625H59.9685V66.8966H57.7499V-0.00390625Z" fill="white"/>
<path fill-rule="evenodd" clip-rule="evenodd" d="M61.8983 -0.00390625H65.863V66.8966H61.8983V-0.00390625Z" fill="white"/>
<path fill-rule="evenodd" clip-rule="evenodd" d="M69.6832 -0.00390625H71.8887V66.8966H69.6832V-0.00390625Z" fill="white"/>
<path fill-rule="evenodd" clip-rule="evenodd" d="M72.8601 -0.00390625H74.5668V66.8966H72.8601V-0.00390625Z" fill="white"/>
<path fill-rule="evenodd" clip-rule="evenodd" d="M42.9284 -0.00390625H45.1339V66.8966H42.9284V-0.00390625Z" fill="white"/>
<path fill-rule="evenodd" clip-rule="evenodd" d="M38.0448 -0.00390625H42.0094V66.8966H38.0448V-0.00390625Z" fill="white"/>
<path fill-rule="evenodd" clip-rule="evenodd" d="M77.3762 -0.00390625H81.3277V66.8966H77.3762V-0.00390625Z" fill="white"/>
<path fill-rule="evenodd" clip-rule="evenodd" d="M85.1479 -0.00390625H87.3665V66.8966H85.1479V-0.00390625Z" fill="white"/>
<path fill-rule="evenodd" clip-rule="evenodd" d="M88.338 -0.00390625H90.0315V66.8966H88.338V-0.00390625Z" fill="white"/>
<path fill-rule="evenodd" clip-rule="evenodd" d="M96.4379 -0.00390625H98.6566V66.8966H96.4379V-0.00390625Z" fill="white"/>
<path fill-rule="evenodd" clip-rule="evenodd" d="M91.5544 -0.00390625H95.519V66.8966H91.5544V-0.00390625Z" fill="white"/>
<path fill-rule="evenodd" clip-rule="evenodd" d="M101.597 -0.00390625H103.816V66.8966H101.597V-0.00390625Z" fill="white"/>
<path fill-rule="evenodd" clip-rule="evenodd" d="M104.774 -0.00390625H106.481V66.8966H104.774V-0.00390625Z" fill="white"/>
<path fill-rule="evenodd" clip-rule="evenodd" d="M112.874 -0.00390625H115.093V66.8966H112.874V-0.00390625Z" fill="white"/>
<path fill-rule="evenodd" clip-rule="evenodd" d="M107.991 -0.00390625H111.955V66.8966H107.991V-0.00390625Z" fill="white"/>
<path fill-rule="evenodd" clip-rule="evenodd" d="M117.023 -0.00390625H124.164V66.8966H117.023V-0.00390625Z" fill="white"/>
<path fill-rule="evenodd" clip-rule="evenodd" d="M126.422 -0.00390625H128.628V66.8966H126.422V-0.00390625Z" fill="white"/>
<path fill-rule="evenodd" clip-rule="evenodd" d="M130.557 -0.00390625H134.522V66.8966H130.557V-0.00390625Z" fill="white"/>
<path fill-rule="evenodd" clip-rule="evenodd" d="M138.342 -0.00390625H140.561V66.8966H138.342V-0.00390625Z" fill="white"/>
<path fill-rule="evenodd" clip-rule="evenodd" d="M141.519 -0.00390625H143.226V66.8966H141.519V-0.00390625Z" fill="white"/>
<path fill-rule="evenodd" clip-rule="evenodd" d="M146.035 -0.00390625H150V66.8966H146.035V-0.00390625Z" fill="white"/>
<path fill-rule="evenodd" clip-rule="evenodd" d="M8.08682 67.0406H145.025V29.5469H8.08682V67.0406Z" fill="#182A3F"/>
<path d="M10.6599 65.6104V31.6875H23.394C25.9802 31.6875 28.0545 32.0288 29.6298 32.7115C31.192 33.3941 32.4129 34.4575 33.3056 35.8885C34.1983 37.3063 34.6447 38.8029 34.6447 40.3651C34.6447 41.8092 34.2508 43.1745 33.4632 44.4611C32.6755 45.7345 31.494 46.7716 29.9055 47.5593C31.9535 48.1632 33.5419 49.1872 34.6316 50.6444C35.7343 52.0885 36.2857 53.8083 36.2857 55.7775C36.2857 57.366 35.9444 58.8494 35.2748 60.2147C34.6053 61.5801 33.7782 62.6303 32.7936 63.3786C31.809 64.1138 30.5619 64.6783 29.0784 65.059C27.5818 65.4397 25.7571 65.6235 23.6041 65.6235H10.6599V65.6104ZM15.1628 45.9446H22.5013C24.4968 45.9446 25.9146 45.8133 26.781 45.5507C27.9232 45.2094 28.7896 44.6449 29.3672 43.8572C29.9449 43.0695 30.2337 42.0849 30.2337 40.8903C30.2337 39.7612 29.9711 38.7635 29.4198 37.9102C28.8815 37.0437 28.107 36.453 27.1092 36.1379C26.1115 35.8228 24.3786 35.6653 21.95 35.6653H15.1628V45.9446ZM15.1628 61.6326H23.6172C25.0744 61.6326 26.0853 61.5801 26.676 61.4619C27.7 61.2781 28.5664 60.9762 29.2622 60.5429C29.958 60.1097 30.5225 59.4796 30.982 58.6525C31.4283 57.8254 31.6515 56.8671 31.6515 55.7906C31.6515 54.5172 31.3233 53.4275 30.6669 52.4823C30.0236 51.5371 29.1178 50.8938 27.9626 50.5131C26.8204 50.1324 25.1532 49.9486 23.0002 49.9486H15.1497V61.6457L15.1628 61.6326Z" fill="white"/>
<path d="M40.3685 53.3091C40.3685 48.7668 41.6288 45.406 44.1624 43.2136C46.276 41.4019 48.8491 40.4961 51.8948 40.4961C55.2687 40.4961 58.0256 41.5989 60.1786 43.8175C62.3184 46.023 63.3949 49.0818 63.3949 52.9677C63.3949 56.1316 62.9223 58.5997 61.9771 60.4113C61.0319 62.223 59.6534 63.6277 57.8286 64.6254C56.017 65.6232 54.0347 66.122 51.8948 66.122C48.4553 66.122 45.6722 65.0193 43.5454 62.8269C41.4187 60.6214 40.3685 57.4444 40.3685 53.3091ZM44.6351 53.3091C44.6351 56.4467 45.3177 58.8097 46.6961 60.3588C48.0746 61.9211 49.8075 62.7087 51.8948 62.7087C53.9822 62.7087 55.6888 61.9211 57.0672 60.3588C58.4457 58.7835 59.1283 56.3942 59.1283 53.1778C59.1283 50.1452 58.4325 47.8478 57.0541 46.2987C55.6757 44.7365 53.9559 43.9488 51.8948 43.9488C49.8337 43.9488 48.0746 44.7233 46.6961 46.2724C45.3177 47.8215 44.6351 50.1715 44.6351 53.3091Z" fill="white"/>
<path d="M68.1866 65.6104V31.6875H72.3613V65.6104H68.1866Z" fill="white"/>
<path d="M95.5846 57.6413L99.8906 58.2058C99.2211 60.7133 97.9608 62.6562 96.136 64.0478C94.2981 65.4263 91.9613 66.122 89.1126 66.122C85.5286 66.122 82.6799 65.0193 80.5794 62.8006C78.4789 60.5951 77.4287 57.4969 77.4287 53.506C77.4287 49.5151 78.492 46.1805 80.6056 43.9094C82.7324 41.6251 85.4892 40.4961 88.8763 40.4961C92.2633 40.4961 94.8363 41.612 96.9106 43.8437C98.9848 46.0755 100.035 49.2262 100.035 53.2697C100.035 53.5191 100.035 53.8867 100.009 54.3724H81.6953C81.8528 57.0637 82.6142 59.1379 83.9795 60.5689C85.3448 61.9998 87.0646 62.7219 89.0994 62.7219C90.6223 62.7219 91.9219 62.3149 92.9984 61.5141C94.0749 60.7133 94.9282 59.4267 95.5715 57.6544L95.5846 57.6413ZM81.9447 50.9591H95.6372C95.4534 48.8849 94.9282 47.3489 94.0618 46.3118C92.749 44.7102 91.0161 43.9094 88.9156 43.9094C86.999 43.9094 85.3973 44.5527 84.0977 45.8261C82.798 47.0995 82.0891 48.8193 81.9447 50.9723V50.9591Z" fill="white"/>
<path d="M114.213 61.8812L114.778 65.5571C113.609 65.8065 112.559 65.9246 111.64 65.9246C110.13 65.9246 108.962 65.6883 108.122 65.2026C107.295 64.7169 106.704 64.0998 106.363 63.3122C106.021 62.5245 105.864 60.8835 105.864 58.3891V44.224H102.779V41.0076H105.864V34.9293L110.039 32.4219V41.0076H114.213V44.224H110.039V58.6255C110.039 59.8201 110.104 60.5815 110.262 60.9229C110.406 61.2642 110.642 61.5267 110.971 61.7368C111.299 61.9337 111.771 62.0387 112.388 62.0387C112.848 62.0387 113.452 61.9862 114.2 61.8681L114.213 61.8812Z" fill="white"/>
<path d="M116.76 53.3091C116.76 48.7668 118.02 45.406 120.554 43.2136C122.668 41.4019 125.241 40.4961 128.286 40.4961C131.66 40.4961 134.417 41.5989 136.57 43.8175C138.71 46.023 139.786 49.0818 139.786 52.9677C139.786 56.1316 139.314 58.5997 138.369 60.4113C137.423 62.223 136.045 63.6277 134.22 64.6254C132.409 65.6232 130.426 66.122 128.286 66.122C124.847 66.122 122.064 65.0193 119.937 62.8269C117.81 60.6214 116.76 57.4444 116.76 53.3091ZM121.027 53.3091C121.027 56.4467 121.709 58.8097 123.088 60.3588C124.466 61.9211 126.199 62.7087 128.286 62.7087C130.374 62.7087 132.08 61.9211 133.459 60.3588C134.837 58.7835 135.52 56.3942 135.52 53.1778C135.52 50.1452 134.824 47.8478 133.446 46.2987C132.067 44.7365 130.347 43.9488 128.286 43.9488C126.225 43.9488 124.466 44.7233 123.088 46.2724C121.709 47.8215 121.027 50.1715 121.027 53.3091Z" fill="white"/>
</g>
<defs>
<clipPath id="clip0_806_2300">
<rect width="150" height="67.0449" fill="white"/>
</clipPath>
</defs>
</svg>
