<svg width="64" height="64" viewBox="0 0 64 64" fill="none" xmlns="http://www.w3.org/2000/svg">
<path d="M5.39999 23.401C6.74999 20.601 8.64998 18.101 10.8 16.001C12.95 13.901 15.4 12.251 18 11.051C20.6 9.85097 23.3 9.20097 25.95 8.95097C28.6 8.75097 31.25 8.95097 33.75 9.65097C36.25 10.301 38.5 11.401 40.5 12.801C41.65 13.601 42.7 14.501 43.65 15.501L35.65 20.751L55.6 24.801L59.65 4.85097L52.9 9.30097C51.85 8.35097 50.75 7.45097 49.6 6.65097C44.05 2.75097 37.15 0.650968 29.7 1.15097C13.15 2.35097 0.649985 16.201 1.04998 32.801C1.09998 34.551 1.29999 36.301 1.59999 38.001C1.64999 38.301 2.04998 38.451 2.29998 38.301C2.44998 38.151 2.54998 38.001 2.49998 37.851C2.19999 32.751 3.24999 27.701 5.39999 23.401ZM61.65 25.651C61.5 25.751 61.45 25.901 61.45 26.051C61.75 31.201 60.75 36.301 58.6 40.551C57.25 43.351 55.35 45.851 53.2 47.951C51.05 50.051 48.6 51.701 46 52.901C43.4 54.101 40.7 54.751 38.05 55.001C35.4 55.201 32.75 55.001 30.25 54.301C27.75 53.651 25.45 52.551 23.45 51.151C22.3 50.351 21.3 49.451 20.35 48.501L28.3 43.251L8.34999 39.201L4.29999 59.151L11.05 54.701C12.05 55.651 13.15 56.501 14.3 57.301C19.9 61.251 26.9 63.351 34.4 62.801C51 61.551 63.45 47.651 62.9 31.001C62.85 29.251 62.65 27.601 62.3 25.951C62.3 25.651 61.95 25.501 61.65 25.651Z" fill="white"/>
</svg>
