<svg width="37" height="36" viewBox="0 0 37 36" fill="none" xmlns="http://www.w3.org/2000/svg">
<g clip-path="url(#clip0_806_1562)">
<path d="M18.6 36C28.5411 36 36.6 27.9411 36.6 18C36.6 8.05888 28.5411 0 18.6 0C8.65885 0 0.599976 8.05888 0.599976 18C0.599976 27.9411 8.65885 36 18.6 36Z" fill="#EDF0F4"/>
<path d="M18.5508 7.19922L18.4077 7.68561V21.7981L18.5508 21.941L25.1016 18.0688L18.5508 7.19922Z" fill="#343434"/>
<path d="M18.5509 7.19922L12 18.0688L18.5509 21.941V15.0911V7.19922Z" fill="#8C8C8C"/>
<path d="M18.5509 23.1827L18.4702 23.2811V28.3082L18.5509 28.5438L25.1056 19.3125L18.5509 23.1827Z" fill="#3C3C3B"/>
<path d="M18.5509 28.5438V23.1827L12 19.3125L18.5509 28.5438Z" fill="#8C8C8C"/>
<path d="M18.5507 21.9416L25.1015 18.0694L18.5507 15.0918V21.9416Z" fill="#141414"/>
<path d="M12 18.0694L18.5509 21.9416V15.0918L12 18.0694Z" fill="#393939"/>
</g>
<defs>
<clipPath id="clip0_806_1562">
<rect width="36" height="36" fill="white" transform="translate(0.599976)"/>
</clipPath>
</defs>
</svg>
