<svg width="300" height="83" viewBox="0 0 300 83" fill="none" xmlns="http://www.w3.org/2000/svg">
<g clip-path="url(#clip0_805_443)">
<path d="M200.024 25.5725C212.165 25.5725 220.766 34.4864 220.766 47.0075C220.766 59.5286 212.165 68.4477 200.024 68.4477C195.666 68.4897 191.44 66.9593 188.12 64.1374L186.84 67.1273H176.777V12.2773H190.219V28.3296C193.156 26.4898 196.558 25.5263 200.024 25.5522V25.5725ZM207.04 47.0075C207.04 41.7461 203.302 37.8203 198.207 37.8203C193.113 37.8203 189.374 41.7461 189.374 47.0075C189.374 52.2689 193.113 56.1542 198.207 56.1542C203.302 56.1542 207.04 52.2284 207.04 47.0075Z" fill="white"/>
<path d="M267.668 46.5977C267.66 47.8272 267.565 49.0545 267.384 50.2706H238.077C238.968 54.8945 241.841 57.2874 246.136 57.2874C249.313 57.2874 251.964 55.8659 253.27 53.5033H266.797C264.025 62.7309 256.037 68.4476 246.136 68.4476C233.823 68.4476 224.696 59.2605 224.696 46.9468C224.696 34.6331 233.727 25.5117 246.136 25.5117C258.86 25.5117 267.668 34.7798 267.668 46.5977ZM238.325 42.5859H254.281C253.088 38.5387 250.234 36.3836 246.141 36.3836C242.175 36.3836 239.418 38.5842 238.32 42.5859H238.325Z" fill="white"/>
<path d="M299.889 54.9715V67.1132H290.534C281.808 67.1132 276.501 61.6646 276.501 52.7101V37.5331H269.276V34.2751L286.983 15.0508H289.776V26.813H299.691V37.523H290.099V50.3425C290.099 53.2312 291.804 54.9715 294.652 54.9715H299.889Z" fill="white"/>
<path d="M150.253 26.8125L134.388 67.1076H122.084L106.007 26.8125H120.911L128.368 50.6759L135.739 26.8125H150.253Z" fill="white"/>
<path d="M101.601 10.0117H98.6309L88.2144 16.72V21.7891H101.601V10.0117Z" fill="white"/>
<path d="M101.706 26.834H88.1128V67.1291H101.706V26.834Z" fill="white"/>
<path d="M168.122 10.0117H165.147L154.735 16.72V21.7891H168.122V10.0117Z" fill="white"/>
<path d="M168.222 26.834H154.629V67.1291H168.222V26.834Z" fill="white"/>
<path d="M71.4537 61.2951C75.4706 54.2428 75.6476 34.6998 71.9343 9.02024L71.5043 6.07083L68.7117 5.02867C63.6729 3.15177 52.9275 0 37.5481 0C21.7893 0 11.2412 3.13659 6.34913 5.00843L3.59702 6.07083L3.17206 8.98988C-0.541264 34.6948 -0.369256 54.2529 3.64255 61.3002C6.99162 67.1939 22.8668 75.9713 35.4537 81.7336L37.5481 82.6897L39.6375 81.7386C52.2243 75.9865 68.1097 67.1889 71.4537 61.2951Z" fill="#22323A"/>
<path d="M8.00824 58.811C10.4619 63.1263 24.8194 71.3472 37.5479 77.16C50.2814 71.3472 64.6339 63.1263 67.0926 58.811C71.4838 51.0909 69.1617 25.0116 66.956 9.73845C62.6963 8.14992 52.4214 5.02344 37.5479 5.02344C22.3202 5.02344 12.2831 8.11956 8.14989 9.70304C5.9391 24.9813 3.617 51.096 8.00824 58.811Z" fill="#00AA81"/>
<mask id="mask0_805_443" style="mask-type:alpha" maskUnits="userSpaceOnUse" x="5" y="5" width="65" height="73">
<path d="M8.00824 58.811C10.4619 63.1263 24.8194 71.3472 37.5479 77.16C50.2814 71.3472 64.6339 63.1263 67.0926 58.811C71.4838 51.0909 69.1617 25.0116 66.956 9.73845C62.6963 8.14992 52.4214 5.02344 37.5479 5.02344C22.3202 5.02344 12.2831 8.11956 8.14989 9.70304C5.9391 24.9813 3.617 51.096 8.00824 58.811Z" fill="#00AA81"/>
</mask>
<g mask="url(#mask0_805_443)">
<path d="M52.3609 78.9199C72.0588 78.9199 88.027 63.5179 88.027 44.5185C88.027 25.5192 72.0588 10.1172 52.3609 10.1172C32.6631 10.1172 16.6948 25.5192 16.6948 44.5185C16.6948 63.5179 32.6631 78.9199 52.3609 78.9199Z" fill="white"/>
<path d="M58.209 9.46494C51.3378 8.2062 44.248 9.01302 37.8355 11.7834C31.423 14.5538 25.9759 19.1632 22.1829 25.0291C18.3898 30.895 16.4213 37.7538 16.5259 44.7383C16.6307 51.7229 18.804 58.5197 22.7712 64.2693C26.7383 70.0184 32.3212 74.4627 38.8138 77.0398C45.3065 79.6164 52.4174 80.2103 59.2476 78.7462C66.0778 77.2821 72.3206 73.8258 77.1864 68.8138C82.0527 63.8024 85.3233 57.4604 86.585 50.5897C88.2667 41.3744 86.2233 31.8683 80.9033 24.1581C75.5832 16.4478 67.4215 11.1635 58.209 9.46494ZM75.6424 25.1074C74.9103 24.6108 74.107 24.2286 73.2596 23.9742C72.8397 23.1496 72.2124 21.986 71.4839 20.8477C73.0051 22.1293 74.3979 23.5559 75.6424 25.1074ZM67.4265 27.0248C69.2862 31.6443 69.7279 36.7129 68.6963 41.5847L60.2022 47.1799C56.155 45.7533 48.5665 41.2154 46.0876 39.7027L45.784 34.5678L45.5311 29.615C47.413 27.9 54.0302 22.1985 58.9324 22.158C60.4835 22.6177 61.981 23.2418 63.3995 24.0197C64.8464 24.8729 66.1967 25.8804 67.4265 27.0248ZM57.3439 14.1648C58.6137 14.3975 61.8211 15.1462 63.0201 15.5256C62.9088 15.5256 61.4114 15.5256 61.3051 15.5256C60.0808 15.5256 59.2208 16.0063 58.381 16.1378C55.5935 15.0805 51.9763 13.8309 49.3304 13.7651C52.0076 13.5466 54.7016 13.681 57.3439 14.1648ZM35.7469 18.2929V18.3182C35.8532 18.2676 46.0876 13.4262 55.983 16.6487L56.7621 20.696C51.8346 21.8595 46.4721 26.3722 44.5092 28.1428C43.0216 27.7065 41.4977 27.4051 39.956 27.2423C38.4386 27.1303 36.9139 27.1642 35.4029 27.3435C34.6236 24.8268 34.3502 22.1806 34.5985 19.5577H34.5226C34.8717 19.2238 35.2714 18.7735 35.7469 18.2929ZM21.526 40.6639C21.607 40.0113 21.693 39.3587 21.8144 38.7061C23.1111 31.5889 26.9031 25.1673 32.5092 20.5948L32.8127 20.5341C32.716 23.1445 33.0825 25.7514 33.8953 28.2339C32.6431 29.8273 31.5214 31.5191 30.5412 33.2929C29.7035 34.8935 29.0257 36.5728 28.5176 38.3064C25.942 38.5687 23.5441 39.7399 21.7537 41.61C21.6608 41.2989 21.5849 40.9831 21.526 40.6639ZM30.2225 63.1462C24.9712 58.1783 22.5125 51.3081 22.5125 51.3081C21.9652 49.0885 21.7286 46.8036 21.8093 44.5189L21.8447 44.3924C21.8447 44.352 24.1415 40.5324 28.7402 40.0973C29.4412 41.3764 30.2719 42.58 31.2191 43.6892C32.2086 44.7868 33.3032 45.7848 34.4872 46.669C34.123 49.6386 33.693 55.7297 35.3169 60.7179L35.3675 60.7584L30.2225 63.1462ZM46.037 66.4396C44.5434 65.9514 43.1 65.3216 41.7267 64.5577C40.2026 63.6395 38.7664 62.5831 37.4366 61.4009C35.413 56.6606 35.8582 49.9928 36.2225 46.8916C37.8901 46.1702 39.512 45.3474 41.0791 44.4278C42.6059 43.5103 44.0726 42.4965 45.4704 41.3924C48.1618 43.0417 54.951 47.0484 59.1904 48.6622L59.6963 59.1901C57.6727 61.1833 52.8262 65.1901 46.037 66.4396ZM69.0049 68.8073L68.3675 66.5206C62.8582 68.2457 56.3827 74.4987 50.3321 73.7853L48.2225 72.3435L48.1415 68.0484L48.096 68.3317C54.1668 66.8545 58.5783 62.9742 60.6727 60.9607C61.2899 61.1327 62.1904 61.2137 63.1466 61.3958C64.0269 61.5405 64.9157 61.6214 65.8076 61.6386C67.2591 61.6675 68.7075 61.4975 70.1129 61.1327C70.1022 62.1046 70.0279 63.0744 69.8903 64.0366C69.738 65.6499 69.435 67.2455 68.9847 68.8022L69.0049 68.8073ZM70.5226 41.5442C71.4242 36.9564 71.1191 32.2131 69.6373 27.7786L72.9459 25.6943C73.8211 25.9573 75.784 26.9084 79.0522 30.3081C81.097 34.2914 82.2358 38.6779 82.3861 43.153L82.0269 44.3874C80.5446 46.3218 78.5245 47.7754 76.2191 48.5661C75.5665 47.4192 74.8259 46.3248 74.0033 45.2929C72.8989 43.98 71.7237 42.7286 70.4822 41.5442H70.5226ZM71.4484 65.4278C71.8147 63.5783 71.9554 61.6907 71.8683 59.8073C72.7896 58.4909 73.6081 57.1057 74.3169 55.6639C75.1198 53.9408 75.8129 52.1681 76.3911 50.357C78.5331 49.7237 80.4803 48.5595 82.0522 46.9725C82.1028 47.1091 82.1584 47.2558 82.214 47.4127C82.1331 48.1766 82.0319 48.9304 81.8903 49.7145C80.9645 54.8003 78.7567 59.5665 75.4754 63.5611C74.152 64.2516 72.7941 64.8744 71.408 65.4278H71.4484Z" fill="#22323A"/>
</g>
</g>
<defs>
<clipPath id="clip0_805_443">
<rect width="300" height="82.968" fill="white"/>
</clipPath>
</defs>
</svg>
