<svg width="37" height="36" viewBox="0 0 37 36" fill="none" xmlns="http://www.w3.org/2000/svg">
<g clip-path="url(#clip0_806_1570)">
<path d="M18.75 33.9008C27.6142 33.9008 34.8 26.715 34.8 17.8508C34.8 8.98661 27.6142 1.80078 18.75 1.80078C9.88583 1.80078 2.7 8.98661 2.7 17.8508C2.7 26.715 9.88583 33.9008 18.75 33.9008Z" fill="white"/>
<path fill-rule="evenodd" clip-rule="evenodd" d="M0.599976 18C0.599976 8.05887 8.65882 0 18.5999 0H18.7045C23.4645 0.0138507 28.0241 1.91806 31.38 5.29371C34.7361 8.66937 36.6138 13.24 36.5997 18C36.5997 27.9411 28.541 36 18.5999 36C8.65882 36 0.599976 27.9411 0.599976 18ZM17.0309 24.9298L18.905 18.6102L21.8251 17.7821L22.4352 15.6901L19.5587 16.5617L22.6096 6.18885V6.02325C22.605 5.88912 22.5473 5.76234 22.4492 5.67078C22.3511 5.57922 22.2207 5.53041 22.0866 5.53512H18.2076C17.9055 5.52579 17.6358 5.72355 17.5539 6.01452L13.9365 18.3051L11.06 19.1768L10.4062 21.1816L13.2827 20.3099L10.7113 29.0702H26.0527C26.3558 29.0828 26.6273 28.8837 26.7064 28.5908L27.5781 25.5836V25.4179C27.5735 25.2838 27.5159 25.157 27.4178 25.0655C27.3197 24.9739 27.1892 24.9251 27.0551 24.9298H17.0309Z" fill="#345D9D"/>
</g>
<defs>
<clipPath id="clip0_806_1570">
<rect width="36" height="36" fill="white" transform="translate(0.599976)"/>
</clipPath>
</defs>
</svg>
