<svg width="150" height="49" viewBox="0 0 150 49" fill="none" xmlns="http://www.w3.org/2000/svg">
<g clip-path="url(#clip0_806_2296)">
<path fill-rule="evenodd" clip-rule="evenodd" d="M30.8959 0.296875H45.0797V14.3968H30.8959V0.296875ZM33.3298 2.7308H42.6563V11.9524H33.3298V2.7308ZM35.5539 4.93392H40.4112V9.74931H35.5539V4.93392ZM7.43804 7.91338H15.1174C21.412 7.91338 26.5736 13.033 26.5736 19.3067C26.5736 25.5488 21.412 30.6685 15.1174 30.6685H7.43804V39.4075H-6.10352e-05V13.4736H7.43804V7.91338ZM7.43804 13.5051V25.0767H13.7641C17.0058 25.0767 19.6181 22.4854 19.6181 19.3067C19.6181 16.0964 17.0058 13.5051 13.7641 13.5051H7.43804ZM30.8959 19.2122H38.3025V39.4075H30.8959V19.2122ZM77.864 7.91338H85.5434C91.838 7.91338 96.9995 13.033 96.9995 19.3067C96.9995 25.5488 91.838 30.6685 85.5434 30.6685H77.864V39.4075H70.4259V13.4736H77.864V7.91338ZM77.864 13.5051V25.0767H84.19C87.4003 25.0767 90.044 22.4854 90.044 19.3067C90.044 16.0964 87.4003 13.5051 84.19 13.5051H77.864ZM55.5811 14.9319C59.809 14.9319 63.5648 16.9252 65.8728 19.9571L61.8547 23.9752C60.7427 21.8979 58.613 20.4712 56.2106 20.4712C52.6122 20.4712 49.7062 23.566 49.7062 27.3743C49.7062 31.1825 52.6122 34.2774 56.2106 34.2774C58.613 34.2774 60.7427 32.8506 61.8547 30.7734L65.8728 34.76C63.5648 37.8234 59.809 39.8167 55.5811 39.8167C48.4997 39.8167 42.7402 34.2564 42.7402 27.3848C42.7402 20.5131 48.4997 14.9529 55.5811 14.9529V14.9319ZM129.364 48.7445H136.655L150 15.2256H142.709L136.592 30.6055L130.476 15.2256H123.185L132.963 39.7642L129.364 48.7445ZM121.412 38.9039H114.666V37.026C106.662 42.2296 99.9685 38.8095 99.1607 33.7004C98.2584 27.9932 101.741 23.8598 115.359 24.9823C115.359 19.8417 107.648 19.1808 102.434 22.7792L99.9999 17.9638C109.599 12.8756 121.391 14.4598 121.412 22.9051V38.9039ZM115.558 28.822H109.799C104.07 28.822 105.329 36.2287 110.816 35.0642C113.638 34.4662 115.38 32.5988 115.558 28.822Z" fill="#3FAD57"/>
</g>
<defs>
<clipPath id="clip0_806_2296">
<rect width="150" height="48.4477" fill="white" transform="translate(0 0.298828)"/>
</clipPath>
</defs>
</svg>
