<svg width="150" height="55" viewBox="0 0 150 55" fill="none" xmlns="http://www.w3.org/2000/svg">
<g clip-path="url(#clip0_806_2265)">
<path d="M61.7167 50.5812V20.0945C61.7167 14.4848 66.264 9.9375 71.8734 9.9375L80.8747 9.95106C86.4678 9.96217 90.9962 14.4995 90.9962 20.0929V26.5821C90.9962 32.1917 86.4487 36.7391 80.8393 36.7391H68.1199" stroke="#939598" stroke-width="5.62469" stroke-miterlimit="10" stroke-linecap="round" stroke-linejoin="round"/>
<path d="M93.5117 9.93359H97.4163C99.7184 9.93359 101.584 11.7998 101.584 14.1019V36.8756" stroke="#939598" stroke-width="5.62469" stroke-miterlimit="10" stroke-linecap="round" stroke-linejoin="round"/>
<path d="M100.747 6.40515L98.9765 4.63424C98.537 4.19491 98.537 3.48249 98.9765 3.04316L100.746 1.27336C101.186 0.833359 101.9 0.833359 102.339 1.27336L104.109 3.04316C104.549 3.48249 104.549 4.19491 104.109 4.63424L102.338 6.40515C101.899 6.84448 101.187 6.84448 100.747 6.40515Z" fill="#32BCAD"/>
<path d="M109.075 9.91211H112.948C114.94 9.91211 116.85 10.7035 118.259 12.1119L127.316 21.1692C128.489 22.3425 130.391 22.3425 131.564 21.1692L140.589 12.1451C141.997 10.7367 143.907 9.94527 145.899 9.94527H149.048" stroke="#939598" stroke-width="5.62469" stroke-miterlimit="10" stroke-linecap="round" stroke-linejoin="round"/>
<path d="M109.075 36.6762H112.948C114.94 36.6762 116.85 35.8847 118.259 34.4764L127.316 25.4191C128.489 24.2457 130.391 24.2457 131.564 25.4191L140.589 34.4432C141.997 35.8516 143.907 36.643 145.899 36.643H149.048" stroke="#939598" stroke-width="5.62469" stroke-miterlimit="10" stroke-linecap="round" stroke-linejoin="round"/>
<path d="M38.6306 42.4617C36.6872 42.4617 34.8593 41.705 33.485 40.3314L26.0553 32.9014C25.5337 32.3784 24.6245 32.38 24.1031 32.9014L16.6462 40.3585C15.2719 41.7322 13.4441 42.4889 11.5007 42.4889H10.0365L19.4465 51.8987C22.3851 54.8374 27.1499 54.8374 30.0888 51.8987L39.5255 42.4617H38.6306Z" fill="#32BCAD"/>
<path d="M11.5006 16.1821C13.444 16.1821 15.2719 16.9388 16.6462 18.3125L24.103 25.7707C24.64 26.3079 25.5169 26.3099 26.0553 25.77L33.485 18.3397C34.8593 16.966 36.6871 16.2093 38.6305 16.2093H39.5254L30.0889 6.77254C27.1498 3.83363 22.3851 3.83363 19.4464 6.77254L10.0369 16.1822L11.5006 16.1821Z" fill="#32BCAD"/>
<path d="M47.331 24.0144L41.6284 18.3118C41.5029 18.362 41.3669 18.3934 41.2233 18.3934H38.6305C37.29 18.3934 35.9778 18.9372 35.0306 19.885L27.6012 27.3148C26.9059 28.01 25.9923 28.3579 25.0796 28.3579C24.166 28.3579 23.2531 28.01 22.558 27.3154L15.1005 19.8579C14.1533 18.9098 12.8411 18.3663 11.5006 18.3663H8.31249C8.1765 18.3663 8.04943 18.3342 7.92947 18.2891L2.20416 24.0144C-0.734721 26.9533 -0.734721 31.7179 2.20416 34.6568L7.92924 40.3819C8.04943 40.3368 8.1765 40.3047 8.31249 40.3047H11.5006C12.8411 40.3047 14.1533 39.7612 15.1005 38.8133L22.5573 31.3565C23.9052 30.0097 26.2547 30.0093 27.6012 31.3571L35.0306 38.7861C35.9778 39.734 37.29 40.2777 38.6305 40.2777H41.2233C41.3669 40.2777 41.5029 40.3091 41.6284 40.3594L47.331 34.6568C50.2697 31.7179 50.2697 26.9533 47.331 24.0144Z" fill="#32BCAD"/>
</g>
<defs>
<clipPath id="clip0_806_2265">
<rect width="150" height="53.16" fill="white" transform="translate(0 0.943359)"/>
</clipPath>
</defs>
</svg>
